<svg width="1000" height="1000" viewBox="0 0 1000 1000" fill="none" xmlns="http://www.w3.org/2000/svg">
<g clip-path="url(#clip0_3_2)">
<rect width="1000" height="1000" fill="white"/>
<g clip-path="url(#clip1_3_2)">
<path fill-rule="evenodd" clip-rule="evenodd" d="M206.703 102.096C149.645 102.096 107.424 152.037 109.314 206.197C111.129 258.23 108.771 325.621 91.8066 380.578C74.7812 435.689 46.0078 470.613 -1 475.096V525.705C46.0078 530.197 74.7812 565.103 91.8047 620.223C108.771 675.18 111.127 742.57 109.312 794.603C107.422 848.756 149.643 898.705 206.711 898.705H791.373C848.432 898.705 890.645 848.764 888.754 794.603C886.939 742.57 889.297 675.18 906.262 620.223C923.287 565.103 951.99 530.184 999 525.705V475.096C951.992 470.603 923.289 435.697 906.262 380.578C889.295 325.629 886.939 258.23 888.754 206.197C890.645 152.045 848.432 102.096 791.373 102.096H206.695H206.703ZM676.967 592.461C676.967 667.037 621.34 712.266 529.025 712.266H371.881C367.386 712.266 363.075 710.48 359.896 707.301C356.717 704.123 354.932 699.812 354.932 695.316V305.486C354.932 300.991 356.717 296.68 359.896 293.501C363.075 290.323 367.386 288.537 371.881 288.537H528.131C605.105 288.537 655.623 330.232 655.623 394.248C655.623 439.18 621.639 479.404 578.344 486.451V488.795C637.281 495.26 676.967 536.08 676.967 592.461ZM511.891 342.266H422.289V468.828H497.756C556.096 468.828 588.264 445.336 588.264 403.346C588.258 363.994 560.602 342.266 511.891 342.266ZM422.289 519.045V658.519H515.187C575.93 658.519 608.104 634.146 608.104 588.342C608.104 542.537 575.027 519.037 511.281 519.037H422.289V519.045Z" fill="#7952B3"/>
</g>
</g>
<defs>
<clipPath id="clip0_3_2">
<rect width="1000" height="1000" fill="white"/>
</clipPath>
<clipPath id="clip1_3_2">
<rect width="1000" height="796.8" fill="white" transform="translate(-1 102)"/>
</clipPath>
</defs>
</svg>
