<svg width="1000" height="1000" viewBox="0 0 1000 1000" fill="none" xmlns="http://www.w3.org/2000/svg">
<rect width="1000" height="1000" fill="white"/>
<g clip-path="url(#clip0_3_2)">
<path d="M333.733 1000C425.733 1000 500.4 925.333 500.4 833.333V666.667H333.733C241.733 666.667 167.067 741.333 167.067 833.333C167.067 925.333 241.733 1000 333.733 1000Z" fill="#0ACF83"/>
<path d="M167.067 500C167.067 408 241.733 333.333 333.733 333.333H500.4V666.667H333.733C241.733 666.667 167.067 592 167.067 500Z" fill="#A259FF"/>
<path d="M167.067 166.667C167.067 74.6667 241.733 3.05176e-05 333.733 3.05176e-05H500.4V333.333H333.733C241.733 333.333 167.067 258.667 167.067 166.667Z" fill="#F24E1E"/>
<path d="M500.4 3.05176e-05H667.067C759.067 3.05176e-05 833.733 74.6667 833.733 166.667C833.733 258.667 759.067 333.333 667.067 333.333H500.4V3.05176e-05Z" fill="#FF7262"/>
<path d="M833.733 500C833.733 592 759.067 666.667 667.067 666.667C575.067 666.667 500.4 592 500.4 500C500.4 408 575.067 333.333 667.067 333.333C759.067 333.333 833.733 408 833.733 500Z" fill="#1ABCFE"/>
</g>
<defs>
<clipPath id="clip0_3_2">
<rect width="666.8" height="1000" fill="white" transform="translate(167)"/>
</clipPath>
</defs>
</svg>
