<svg width="1000" height="1000" viewBox="0 0 1000 1000" fill="none" xmlns="http://www.w3.org/2000/svg">
<rect width="1000" height="1000" fill="white"/>
<g clip-path="url(#clip0_3_2)">
<path d="M177.083 13H822.917C920.833 13 1000 92.1667 1000 190.083V810.917C1000 908.833 920.833 988 822.917 988H177.083C79.1667 988 0 908.833 0 810.917V190.083C0 92.1667 79.1667 13 177.083 13Z" fill="#330000"/>
<path d="M483.333 596.333H328.333L296.667 694.25C295.833 698 292.5 700.5 288.75 700.083H210.417C205.833 700.083 204.583 697.583 205.833 692.583L340 306.333C341.25 302.167 342.5 297.583 344.167 292.583C345.833 283.833 346.667 274.667 346.667 265.5C346.25 263.417 347.917 261.333 350 260.917H457.917C461.25 260.917 462.917 262.167 463.333 264.25L615.417 693.417C616.667 698 615.417 700.083 611.25 700.083H524.167C521.25 700.5 518.333 698.417 517.5 695.5L483.333 596.333ZM352.5 511.75H458.333C455.833 503 452.5 492.583 448.75 481.75C445 470.5 441.25 458.417 437.5 445.917C433.333 433 429.583 420.5 425.417 407.583C421.25 394.667 417.5 382.583 414.167 370.5C410.833 358.833 407.917 348 405 338H404.167C400.417 355.917 395.833 373.833 390 391.75C383.75 411.75 377.5 432.583 370.833 453.417C365 474.667 358.75 494.25 352.5 511.75ZM708.333 333.833C694.583 334.25 681.25 328.833 671.25 319.25C661.667 308.833 656.667 295.083 657.083 280.917C656.667 266.75 662.083 253.417 672.083 243.833C682.083 234.25 695.417 229.25 709.167 229.25C725.417 229.25 737.917 234.25 747.083 243.833C756.25 253.833 761.25 267.167 760.833 280.917C761.25 295.083 756.25 308.833 746.25 319.25C736.667 329.25 722.5 334.667 708.333 333.833ZM661.667 695.5V374.667C661.667 370.5 663.333 368.833 667.083 368.833H749.583C753.333 368.833 755 370.917 755 374.667V695.5C755 700.083 753.333 702.167 749.583 702.167H667.917C663.75 702.167 661.667 699.667 661.667 695.5Z" fill="#FF9A00"/>
</g>
<defs>
<clipPath id="clip0_3_2">
<rect width="1000" height="975" fill="white" transform="translate(0 13)"/>
</clipPath>
</defs>
</svg>
