<svg width="1000" height="1000" viewBox="0 0 1000 1000" fill="none" xmlns="http://www.w3.org/2000/svg">
<rect width="1000" height="1000" fill="white"/>
<g clip-path="url(#clip0_3_2)">
<path d="M177.083 13H822.917C920.833 13 1000 92.1667 1000 190.083V810.917C1000 908.833 920.833 988 822.917 988H177.083C79.1667 988 0 908.833 0 810.917V190.083C0 92.1667 79.1667 13 177.083 13Z" fill="#001E36"/>
<path d="M225 696.75V268C225 265.083 226.25 263.417 229.167 263.417C236.25 263.417 242.917 263.417 252.5 263C262.5 262.583 272.917 262.583 284.167 262.167C295.417 261.75 307.5 261.75 320.417 261.333C333.333 260.917 345.833 260.917 358.333 260.917C392.5 260.917 420.833 265.083 444.167 273.833C465 280.917 484.167 292.583 500 308C513.333 321.333 523.75 337.583 530.417 355.5C536.667 373 540 390.917 540 409.667C540 445.5 531.667 475.083 515 498.417C498.333 521.75 475 539.25 447.917 549.25C419.583 559.667 388.333 563.417 354.167 563.417C344.167 563.417 337.5 563.417 333.333 563C329.167 562.583 323.333 562.583 315.417 562.583V696.333C315.833 699.25 313.75 701.75 310.833 702.167C310.417 702.167 310 702.167 309.167 702.167H230C226.667 702.167 225 700.5 225 696.75ZM315.833 343.833V483.833C321.667 484.25 327.083 484.667 332.083 484.667H354.167C370.417 484.667 386.667 482.167 402.083 477.167C415.417 473.417 427.083 465.5 436.25 455.083C445 444.667 449.167 430.5 449.167 412.167C449.583 399.25 446.25 386.333 439.583 375.083C432.5 364.25 422.5 355.917 410.417 351.333C395 345.083 378.333 342.583 361.25 343C350.417 343 340.833 343 332.917 343.417C324.583 343 318.75 343.417 315.833 343.833Z" fill="#31A8FF"/>
<path d="M800 458.417C787.5 451.75 774.167 447.167 760 444.25C744.583 440.917 729.167 438.833 713.333 438.833C705 438.417 696.25 439.667 688.333 441.75C682.917 443 678.333 445.917 675.417 450.083C673.333 453.417 672.083 457.583 672.083 461.333C672.083 465.083 673.75 468.833 676.25 472.167C680 476.75 685 480.5 690.417 483.417C700 488.417 710 493 720 497.167C742.5 504.667 764.167 515.083 784.167 527.583C797.917 536.333 809.167 548 817.083 562.167C823.75 575.5 827.083 590.083 826.667 605.083C827.083 624.667 821.25 644.25 810.417 660.5C798.75 677.167 782.5 690.083 763.75 697.583C743.333 706.333 718.333 710.917 688.333 710.917C669.167 710.917 650.417 709.25 631.667 705.5C617.083 703 602.5 698.417 589.167 692.167C586.25 690.5 584.167 687.583 584.583 684.25V611.75C584.583 610.5 585 608.833 586.25 608C587.5 607.167 588.75 607.583 590 608.417C606.25 618 623.333 624.667 641.667 628.833C657.5 633 674.167 635.083 690.833 635.083C706.667 635.083 717.917 633 725.417 629.25C732.083 626.333 736.667 619.25 736.667 611.75C736.667 605.917 733.333 600.5 726.667 595.083C720 589.667 706.25 583.417 685.833 575.5C664.583 568 645 558 626.667 545.5C613.75 536.333 602.917 524.25 595 510.083C588.333 496.75 585 482.167 585.417 467.583C585.417 449.667 590.417 432.583 599.583 417.167C610 400.5 625.417 387.167 643.333 378.833C662.917 368.833 687.5 364.25 717.083 364.25C734.167 364.25 751.667 365.5 768.75 368C781.25 369.667 793.333 373 804.583 377.583C806.25 378 807.917 379.667 808.75 381.333C809.167 383 809.583 384.667 809.583 386.333V454.25C809.583 455.917 808.75 457.583 807.5 458.417C803.75 459.25 801.667 459.25 800 458.417Z" fill="#31A8FF"/>
</g>
<defs>
<clipPath id="clip0_3_2">
<rect width="1000" height="975" fill="white" transform="translate(0 13)"/>
</clipPath>
</defs>
</svg>
